<svg xmlns="http://www.w3.org/2000/svg" viewBox="0 0 64 64"><path class="a" d="M32,0A32,32,0,1,0,64,32,32,32,0,0,0,32,0ZM53.16,14.76a27.22,27.22,0,0,1,6.17,17,64,64,0,0,0-19-.88c-.75-1.81-1.45-3.4-2.41-5.37,10.11-4.12,14.69-10,15.27-10.77Zm-3-3.16c-.49.7-4.61,6.23-14.33,9.87a144.92,144.92,0,0,0-10.2-16A27.25,27.25,0,0,1,50.12,11.6ZM20.38,7.31a173.34,173.34,0,0,1,10.13,15.8A101.43,101.43,0,0,1,5.24,26.44,27.43,27.43,0,0,1,20.38,7.31ZM4.67,32c0-.28,0-.56,0-.83a101.21,101.21,0,0,0,28.09-3.89C33.55,28.85,34.3,30.4,35,32c-9.89,2.78-18.87,10.77-23.3,18.36A27.26,27.26,0,0,1,4.67,32ZM15.22,53.6c2.86-5.83,10.61-13.37,21.63-17.13A114.69,114.69,0,0,1,42.68,57.2,27.26,27.26,0,0,1,15.22,53.6Zm32.05,1.1A117.64,117.64,0,0,0,42,35.21a40.24,40.24,0,0,1,17,1.17A27.4,27.4,0,0,1,47.27,54.7Z"/></svg>