<svg xmlns="http://www.w3.org/2000/svg" viewBox="0 0 64 64"><path class="a" d="M44,64a2.37,2.37,0,0,1-2.38-2.38V50.72a1.21,1.21,0,0,1,0-.19,7.1,7.1,0,0,0-2-5.51,2.38,2.38,0,0,1,1.44-4c5.09-.56,8.62-1.81,11.13-3.92,3.3-2.77,4.91-7.17,4.91-13.44a12.91,12.91,0,0,0-3.57-8.93A2.39,2.39,0,0,1,53,12.24a11.83,11.83,0,0,0,.31-7.41c-1.36.23-4,1-8,3.76a2.38,2.38,0,0,1-1.94.32,35.36,35.36,0,0,0-18.49,0,2.38,2.38,0,0,1-1.94-.32c-4.06-2.72-6.67-3.53-8-3.76a11.9,11.9,0,0,0,.3,7.41,2.37,2.37,0,0,1-.5,2.47,12.88,12.88,0,0,0-3.57,9h0c0,13.51,7.72,16.34,16.06,17.37a2.38,2.38,0,0,1,1.42,4,7.12,7.12,0,0,0-2,5.45c0,.06,0,.11,0,.17v10.9a2.38,2.38,0,1,1-4.75,0V56.18a14.19,14.19,0,0,1-8.72-.84A16.85,16.85,0,0,1,7.2,50C6.05,48.56,5.06,47.3,4,47A2.38,2.38,0,0,1,5.1,42.41c2.69.68,4.29,2.7,5.83,4.66,2.41,3,4.51,5.72,11,4.27V50.8a11.83,11.83,0,0,1,1-5.61C15,43.51,6.38,38.85,6.38,23.73A17.64,17.64,0,0,1,10.3,12.52a16.62,16.62,0,0,1,.75-11A2.37,2.37,0,0,1,12.56.17c.7-.21,4.51-1,12.12,3.89a40.13,40.13,0,0,1,18.87,0C51.16-.8,55,0,55.67.17a2.37,2.37,0,0,1,1.51,1.34,16.62,16.62,0,0,1,.74,11,17.63,17.63,0,0,1,3.93,11.12c0,7.65-2.22,13.4-6.6,17.08a22.19,22.19,0,0,1-9.89,4.43,11.88,11.88,0,0,1,1,5.66V61.62A2.37,2.37,0,0,1,44,64ZM54.46,4.76Zm-40.7,0Z"/></svg>