<svg xmlns="http://www.w3.org/2000/svg" viewBox="0 0 64 64"><path class="a" d="M43.85,19.26A20.17,20.17,0,0,0,23.7,39.41V60.14a2.37,2.37,0,0,0,2.38,2.38H37.92a2.37,2.37,0,0,0,2.38-2.38V39.41a3.55,3.55,0,1,1,7.1,0V60.14a2.37,2.37,0,0,0,2.38,2.38H61.63A2.37,2.37,0,0,0,64,60.14V39.41A20.17,20.17,0,0,0,43.85,19.26Zm15.4,38.51h-7.1V39.41a8.3,8.3,0,0,0-16.6,0V57.77h-7.1V39.41a15.4,15.4,0,0,1,30.8,0Z"/><path class="a" d="M14.22,22.22H2.38A2.37,2.37,0,0,0,0,24.59V60.14a2.37,2.37,0,0,0,2.38,2.38H14.22a2.37,2.37,0,0,0,2.38-2.38V24.59A2.37,2.37,0,0,0,14.22,22.22ZM11.85,57.77H4.75V27h7.1Z"/><path class="a" d="M8.3,1.48a8.3,8.3,0,1,0,8.3,8.3A8.31,8.31,0,0,0,8.3,1.48Zm0,11.85a3.55,3.55,0,1,1,3.55-3.55A3.55,3.55,0,0,1,8.3,13.33Z"/></svg>